<?xml version="1.0" encoding="iso-8859-1"?>
<!-- Generator: Adobe Illustrator 19.0.0, SVG Export Plug-In . SVG Version: 6.00 Build 0)  -->
<svg version="1.1" id="Layer_1" xmlns="http://www.w3.org/2000/svg" xmlns:xlink="http://www.w3.org/1999/xlink" x="0px" y="0px"
	 viewBox="0 0 512 512" style="enable-background:new 0 0 512 512;" xml:space="preserve">
<g>
	<path style="fill:#8697CB;" d="M256,485.517c-4.882,0-8.828-3.946-8.828-8.828v-70.621c0-4.882,3.946-8.828,8.828-8.828
		s8.828,3.946,8.828,8.828v70.621C264.828,481.571,260.882,485.517,256,485.517"/>
	<path style="fill:#8697CB;" d="M256,414.897c-82.75,0-150.069-67.319-150.069-150.069v-88.276c0-4.882,3.946-8.828,8.828-8.828
		h52.966c4.882,0,8.828,3.946,8.828,8.828s-3.946,8.828-8.828,8.828h-44.138v79.448c0,73.013,59.401,132.414,132.414,132.414
		s132.414-59.401,132.414-132.414v-79.448h-44.138c-4.882,0-8.828-3.946-8.828-8.828s3.946-8.828,8.828-8.828h52.966
		c4.882,0,8.828,3.946,8.828,8.828v88.276C406.069,347.577,338.75,414.897,256,414.897"/>
</g>
<path style="fill:#D7DDE0;" d="M256,353.103L256,353.103c-48.755,0-88.276-39.521-88.276-88.276V88.276
	C167.724,39.521,207.245,0,256,0s88.276,39.521,88.276,88.276v176.552C344.276,313.582,304.755,353.103,256,353.103"/>
<g>
	<path style="fill:#BDC3C7;" d="M344.276,512H167.724c0-19.5,15.81-35.31,35.31-35.31h105.931
		C328.466,476.69,344.276,492.5,344.276,512"/>
	<path style="fill:#BDC3C7;" d="M291.31,176.552c0,19.5-15.81,35.31-35.31,35.31s-35.31-15.81-35.31-35.31s15.81-35.31,35.31-35.31
		S291.31,157.052,291.31,176.552"/>
</g>
<g>
	<path style="fill:#ECF1F1;" d="M256,0c-2.984,0-5.923,0.159-8.828,0.441v52.524c0,4.882,3.946,8.828,8.828,8.828
		s8.828-3.946,8.828-8.828V0.441C261.923,0.159,258.984,0,256,0"/>
	<path style="fill:#ECF1F1;" d="M291.31,88.276c-4.882,0-8.828,3.946-8.828,8.828s3.946,8.828,8.828,8.828h52.966V88.276H291.31z"/>
	<path style="fill:#ECF1F1;" d="M317.793,141.241c-4.882,0-8.828,3.946-8.828,8.828s3.946,8.828,8.828,8.828h26.483v-17.655H317.793
		z"/>
	<path style="fill:#ECF1F1;" d="M317.793,194.207c-4.882,0-8.828,3.946-8.828,8.828s3.946,8.828,8.828,8.828h26.483v-17.655H317.793
		z"/>
	<path style="fill:#ECF1F1;" d="M291.31,247.172c-4.882,0-8.828,3.946-8.828,8.828s3.946,8.828,8.828,8.828h52.966v-17.655H291.31z"
		/>
	<path style="fill:#ECF1F1;" d="M256,291.31c-4.882,0-8.828,3.946-8.828,8.828v52.524c2.904,0.283,5.844,0.441,8.828,0.441
		c2.984,0,5.923-0.159,8.828-0.441v-52.524C264.828,295.256,260.882,291.31,256,291.31"/>
	<path style="fill:#ECF1F1;" d="M229.517,256c0-4.882-3.946-8.828-8.828-8.828h-52.966v17.655h52.966
		C225.571,264.828,229.517,260.882,229.517,256"/>
	<path style="fill:#ECF1F1;" d="M194.207,211.862c4.882,0,8.828-3.946,8.828-8.828s-3.946-8.828-8.828-8.828h-26.483v17.655H194.207
		z"/>
	<path style="fill:#ECF1F1;" d="M194.207,158.897c4.882,0,8.828-3.946,8.828-8.828s-3.946-8.828-8.828-8.828h-26.483v17.655H194.207
		z"/>
	<path style="fill:#ECF1F1;" d="M220.69,105.931c4.882,0,8.828-3.946,8.828-8.828s-3.946-8.828-8.828-8.828h-52.966v17.655H220.69z"
		/>
</g>
<g>
</g>
<g>
</g>
<g>
</g>
<g>
</g>
<g>
</g>
<g>
</g>
<g>
</g>
<g>
</g>
<g>
</g>
<g>
</g>
<g>
</g>
<g>
</g>
<g>
</g>
<g>
</g>
<g>
</g>
</svg>
