<?xml version="1.0" encoding="iso-8859-1"?>
<!-- Generator: Adobe Illustrator 19.0.0, SVG Export Plug-In . SVG Version: 6.00 Build 0)  -->
<svg version="1.1" id="Capa_1" xmlns="http://www.w3.org/2000/svg" xmlns:xlink="http://www.w3.org/1999/xlink" x="0px" y="0px"
	 viewBox="0 0 512 512" style="enable-background:new 0 0 512 512;" xml:space="preserve">
<path style="fill:#F26B6B;" d="M320,112H192c-22.056,0-40,17.944-40,40v160c0,4.418,3.582,8,8,8h192c4.418,0,8-3.582,8-8V152
	C360,129.944,342.056,112,320,112z"/>
<path style="fill:#E26161;" d="M176,312V152c0-22.056,17.944-40,40-40h-24c-22.056,0-40,17.944-40,40v160c0,4.418,3.582,8,8,8h24
	C179.582,320,176,316.418,176,312z"/>
<path style="fill:#73BFBF;" d="M488,304H24c-13.233,0-24,10.766-24,24v136c0,13.234,10.767,24,24,24h464c13.233,0,24-10.766,24-24
	V328C512,314.766,501.233,304,488,304z"/>
<rect x="24" y="328" style="fill:#79D1D1;" width="464" height="136"/>
<g>
	<path style="fill:#D65151;" d="M256,64c-4.418,0-8-3.582-8-8V32c0-4.418,3.582-8,8-8s8,3.582,8,8v24C264,60.418,260.418,64,256,64z
		"/>
	<path style="fill:#D65151;" d="M193.774,89.774c-2.048,0-4.095-0.781-5.657-2.343l-16.971-16.97c-3.124-3.124-3.124-8.189,0-11.313
		c3.126-3.125,8.19-3.124,11.314,0l16.971,16.97C204.357,81.043,200.769,89.774,193.774,89.774z"/>
	<path style="fill:#D65151;" d="M318.226,89.774c-6.995,0-10.583-8.731-5.657-13.657l16.971-16.97c3.127-3.125,8.191-3.124,11.314,0
		c3.124,3.124,3.124,8.189,0,11.313l-16.971,16.97C322.32,88.993,320.272,89.774,318.226,89.774z"/>
</g>
<g>
	<path style="fill:#EDECF1;" d="M104,456H64c-13.233,0-24-10.767-24-24v-72c0-13.233,10.767-24,24-24h40c13.233,0,24,10.767,24,24
		v72C128,445.233,117.233,456,104,456z M64,352c-4.411,0-8,3.589-8,8v72c0,4.411,3.589,8,8,8h40c4.411,0,8-3.589,8-8v-72
		c0-4.411-3.589-8-8-8H64z"/>
	<path style="fill:#EDECF1;" d="M216.001,456c-2.576,0-5.056-1.248-6.578-3.447L152,369.61V448c0,4.418-3.582,8-8,8s-8-3.582-8-8
		V344c0-3.5,2.274-6.593,5.614-7.636c3.341-1.042,6.972,0.206,8.963,3.083L208,422.39V344c0-4.418,3.582-8,8-8s8,3.582,8,8v104
		C224,452.357,220.363,456,216.001,456z"/>
	<path style="fill:#EDECF1;" d="M359.264,444.647l-48-104c-2.802-6.071-11.725-6.071-14.527,0l-48,104
		c-1.852,4.012-0.101,8.765,3.911,10.616c4.012,1.851,8.765,0.101,10.616-3.911l16.326-35.373c0.137,0.007,0.272,0.021,0.41,0.021
		h48c0.138,0,0.273-0.014,0.41-0.021l16.326,35.373c1.351,2.926,4.244,4.649,7.269,4.649
		C357.756,456.002,361.664,449.847,359.264,444.647z M286.965,400L304,363.09L321.035,400H286.965z"/>
	<path style="fill:#EDECF1;" d="M376,456c-4.418,0-8-3.582-8-8V344c0-4.418,3.582-8,8-8s8,3.582,8,8v104
		C384,452.418,380.418,456,376,456z"/>
	<path style="fill:#EDECF1;" d="M463.996,456c-1.807,0-3.622-0.608-5.117-1.854l-48-40c-1.839-1.533-2.855-3.767-2.879-6.068V448
		c0,4.418-3.582,8-8,8s-8-3.582-8-8V344c0-4.418,3.582-8,8-8h48c13.233,0,24,10.767,24,24v32c0,13.233-10.767,24-24,24h-9.903
		l31.024,25.854c2.445,2.038,3.458,5.427,2.534,8.472C470.643,453.66,467.479,456,463.996,456z M408,352v55.918
		c0.009-0.885,0.165-1.777,0.478-2.642c1.146-3.167,4.154-5.276,7.522-5.276h32c4.411,0,8-3.589,8-8v-32c0-4.411-3.589-8-8-8H408z"
		/>
</g>
<g>
</g>
<g>
</g>
<g>
</g>
<g>
</g>
<g>
</g>
<g>
</g>
<g>
</g>
<g>
</g>
<g>
</g>
<g>
</g>
<g>
</g>
<g>
</g>
<g>
</g>
<g>
</g>
<g>
</g>
</svg>
