<?xml version="1.0" encoding="iso-8859-1"?>
<!-- Generator: Adobe Illustrator 19.0.0, SVG Export Plug-In . SVG Version: 6.00 Build 0)  -->
<svg version="1.1" id="Layer_1" xmlns="http://www.w3.org/2000/svg" xmlns:xlink="http://www.w3.org/1999/xlink" x="0px" y="0px"
	 viewBox="0 0 512 512" style="enable-background:new 0 0 512 512;" xml:space="preserve">
<g>
	<path style="fill:#444455;" d="M220.69,194.207h-17.655c-4.875,0-8.828,3.953-8.828,8.828v61.793h35.31v-61.793
		C229.517,198.159,225.565,194.207,220.69,194.207z"/>
	<path style="fill:#444455;" d="M317.793,211.862h-35.31c-4.875,0-8.828,3.953-8.828,8.828v44.138h52.966V220.69
		C326.621,215.815,322.668,211.862,317.793,211.862z"/>
</g>
<g>
	<path style="fill:#5A5D6F;" d="M300.138,0L300.138,0c-4.934,0-8.99,3.891-9.195,8.82l-8.46,203.042h35.31L309.333,8.82
		C309.128,3.891,305.071,0,300.138,0z"/>
	<path style="fill:#5A5D6F;" d="M308.966,512H203.034c-9.751,0-17.655-7.904-17.655-17.655v-70.621
		c0-9.81-1.203-19.582-3.582-29.099l-1.663-6.653c-2.38-9.516-3.583-19.288-3.583-29.098V256c0-14.626,11.857-26.483,26.483-26.483
		h105.931c14.626,0,26.483,11.857,26.483,26.483v102.874c0,9.81-1.203,19.582-3.582,29.099l-1.663,6.653
		c-2.38,9.516-3.583,19.288-3.583,29.098v70.621C326.621,504.096,318.717,512,308.966,512z"/>
</g>
<path style="fill:#D4DEED;" d="M308.966,247.172H203.034c-4.875,0-8.828,3.953-8.828,8.828v70.621
	c0,34.127,27.666,61.793,61.793,61.793l0,0c34.127,0,61.793-27.666,61.793-61.793V256
	C317.793,251.125,313.841,247.172,308.966,247.172z"/>
<path style="fill:#6F7588;" d="M291.31,264.828H220.69c-4.875,0-8.828,3.953-8.828,8.828v52.966
	c0,24.376,19.762,44.138,44.138,44.138l0,0c24.376,0,44.138-19.762,44.138-44.138v-52.966
	C300.138,268.78,296.185,264.828,291.31,264.828z"/>
<path style="fill:#FFBE5D;" d="M291.31,264.828H220.69c-4.875,0-8.828,3.953-8.828,8.828v35.31c0,4.875,3.953,8.828,8.828,8.828
	h70.621c4.875,0,8.828-3.953,8.828-8.828v-35.31C300.138,268.78,296.185,264.828,291.31,264.828z"/>
<g>
	<circle style="fill:#5A5D6F;" cx="256" cy="344.276" r="17.655"/>
	<circle style="fill:#5A5D6F;" cx="216.276" cy="339.862" r="13.241"/>
	<circle style="fill:#5A5D6F;" cx="295.724" cy="339.862" r="13.241"/>
</g>
<g>
	<path style="fill:#444455;" d="M273.655,432.552h-35.31c-4.875,0-8.828-3.953-8.828-8.828l0,0c0-4.875,3.953-8.828,8.828-8.828
		h35.31c4.875,0,8.828,3.953,8.828,8.828l0,0C282.483,428.599,278.53,432.552,273.655,432.552z"/>
	<path style="fill:#444455;" d="M300.138,414.897L300.138,414.897c-4.875,0-8.828-3.953-8.828-8.828l0,0
		c0-4.875,3.953-8.828,8.828-8.828l0,0c4.875,0,8.828,3.953,8.828,8.828l0,0C308.966,410.944,305.013,414.897,300.138,414.897z"/>
	<path style="fill:#444455;" d="M291.31,459.034H220.69c-4.875,0-8.828-3.953-8.828-8.828l0,0c0-4.875,3.953-8.828,8.828-8.828
		h70.621c4.875,0,8.828,3.953,8.828,8.828l0,0C300.138,455.082,296.185,459.034,291.31,459.034z"/>
	<path style="fill:#444455;" d="M273.655,485.517h-35.31c-4.875,0-8.828-3.953-8.828-8.828l0,0c0-4.875,3.953-8.828,8.828-8.828
		h35.31c4.875,0,8.828,3.953,8.828,8.828l0,0C282.483,481.565,278.53,485.517,273.655,485.517z"/>
</g>
<g>
</g>
<g>
</g>
<g>
</g>
<g>
</g>
<g>
</g>
<g>
</g>
<g>
</g>
<g>
</g>
<g>
</g>
<g>
</g>
<g>
</g>
<g>
</g>
<g>
</g>
<g>
</g>
<g>
</g>
</svg>
